<?xml version="1.0" encoding="UTF-8" standalone="no"?>
<svg xmlns:dc="http://purl.org/dc/elements/1.1/" xmlns:cc="http://creativecommons.org/ns#" xmlns:rdf="http://www.w3.org/1999/02/22-rdf-syntax-ns#" xmlns:svg="http://www.w3.org/2000/svg" xmlns="http://www.w3.org/2000/svg" viewBox="0 0 658.98669 68.559998" height="68.559998" width="658.98669" xml:space="preserve" version="1.1" id="svg2">
  <metadata id="metadata8">
    <rdf:RDF>
      <cc:Work rdf:about="">
        <dc:format>image/svg+xml</dc:format>
        <dc:type rdf:resource="http://purl.org/dc/dcmitype/StillImage"/>
      </cc:Work>
    </rdf:RDF>
  </metadata>
  <defs id="defs6"/>
  <g transform="matrix(1.3333333,0,0,-1.3333333,0,68.56)" id="g10">
    <g transform="scale(0.1)" id="g12">
      <path id="path14" style="fill:#000000;fill-opacity:1;fill-rule:nonzero;stroke:none" d="m 0,508.672 621.316,0 0,-125.098 -229.121,0 0,-378.00759 -163.054,0 0,378.00759 -229.141,0 0,125.098"/>
      <path id="path16" style="fill:#000000;fill-opacity:1;fill-rule:nonzero;stroke:none" d="m 855.676,261.27 269.534,0 c 44.06,0 60.23,16.679 60.23,52.832 l 0,16.64 c 0,44.512 -23.52,52.832 -74.92,52.832 l -254.844,0 0,-122.304 z m -163.047,247.402 492.071,0 c 125.58,0 159.37,-59.063 159.37,-149.414 l 0,-31.953 c 0,-67.442 -16.15,-107.012 -91.09,-123.711 l 0,-1.387 c 48.48,-8.34 88.89,-28.516 88.89,-111.1914 l 0,-85.44919 -163.04,0 0,60.42969 c 0,52.8129 -16.16,70.2149 -66.86,70.2149 l -256.294,0 0,-130.64459 -163.047,0 0,503.10559"/>
      <path id="path18" style="fill:#000000;fill-opacity:1;fill-rule:nonzero;stroke:none" d="m 1463.12,5.56641 163.02,0 0,503.105 -163.02,0 0,-503.105 z"/>
      <path id="path20" style="fill:#000000;fill-opacity:1;fill-rule:nonzero;stroke:none" d="m 1745.13,508.672 555.23,0 0,-120.918 -392.17,0 0,-93.848 373.82,0 0,-116.718 -373.82,0 0,-171.62159 -163.06,0 0,503.10559"/>
      <path id="path22" style="fill:#000000;fill-opacity:1;fill-rule:nonzero;stroke:none" d="m 2554.53,230.02 c 0,-72.969 16.16,-100.782 93.27,-100.782 l 208.57,0 c 77.15,0 93.27,27.813 93.27,100.782 l 0,54.179 c 0,62.539 -16.12,100.762 -102.04,100.762 l -190.98,0 c -85.93,0 -102.09,-38.223 -102.09,-100.762 l 0,-54.179 z m -167.42,102.128 c 0,147.325 87.38,182.051 234.28,182.051 l 261.43,0 c 146.89,0 234.29,-34.726 234.29,-182.051 l 0,-150.078 C 3117.11,34.7266 3029.71,0 2882.82,0 l -261.43,0 c -146.9,0 -234.28,34.7266 -234.28,182.07 l 0,150.078"/>
      <path id="path24" style="fill:#000000;fill-opacity:1;fill-rule:nonzero;stroke:none" d="m 3378.66,261.27 269.51,0 c 44.1,0 60.21,16.679 60.21,52.832 l 0,16.64 c 0,44.512 -23.5,52.832 -74.88,52.832 l -254.84,0 0,-122.304 z m -163.07,247.402 492.06,0 c 125.63,0 159.38,-59.063 159.38,-149.414 l 0,-31.953 c 0,-67.442 -16.15,-107.012 -91.05,-123.711 l 0,-1.387 c 48.47,-8.34 88.88,-28.516 88.88,-111.1914 l 0,-85.44919 -163.08,0 0,60.42969 c 0,52.8129 -16.15,70.2149 -66.82,70.2149 l -256.3,0 0,-130.64459 -163.07,0 0,503.10559"/>
      <path id="path26" style="fill:#000000;fill-opacity:1;fill-rule:nonzero;stroke:none" d="m 3977.29,508.672 162.98,0 0,-184.863 76.43,0 205.6,184.863 221.82,0 -287.89,-246.016 321.68,-257.08959 -230.62,0 -235.02,193.14459 -72,0 0,-193.14459 -162.98,0 0,503.10559"/>
      <path id="path28" style="fill:#ff7800;fill-opacity:1;fill-rule:nonzero;stroke:none" d="m 4788.16,5.56641 154.219,0 0,141.758 -154.219,0 0,-141.758 z"/>
    </g>
  </g>
</svg>
